<?xml version="1.0" encoding="UTF-8"?>
<svg width="30" height="30" version="1.1" viewBox="0 0 30 30" xmlns="http://www.w3.org/2000/svg" xmlns:cc="http://creativecommons.org/ns#" xmlns:dc="http://purl.org/dc/elements/1.1/" xmlns:rdf="http://www.w3.org/1999/02/22-rdf-syntax-ns#">
 <metadata>
  <rdf:RDF>
   <cc:Work rdf:about="">
    <dc:format>image/svg+xml</dc:format>
    <dc:type rdf:resource="http://purl.org/dc/dcmitype/StillImage"/>
    <dc:title>pineapple 10</dc:title>
   </cc:Work>
  </rdf:RDF>
 </metadata>
 <defs>
  <style>.cls-1{fill:#2b6f3e;}.cls-2{fill:#4fb15c;}.cls-3{fill:#aeaeae;}.cls-4{fill:#90837c;}.cls-5{fill:#cecece;}.cls-6{fill:#48423e;}.cls-7{fill:#fff;}.cls-8{fill:#e5b48b;}</style>
 </defs>
 <title>pineapple 10</title>
 <g transform="translate(-4.7036 -3.4035)" data-name="pineapple 10">
  <g transform="matrix(.048701 0 0 .048701 6.0957 5.1053)" style="shape-inside:url(#rect841);white-space:pre">
   <path d="m260.48 3.53c-2.93-2.46-6.33-3.55-9.64-3.53-7.71 0.05-15 6.13-15 15.02 0 166.4-180 173.23-180 332 0 96.91 92.73 159.85 96.68 162.48 11.59 7.73 26.56-3.23 22.74-16.6-23.52-82.34-20.84-167.84 42.61-225.83-11.36 41.89-1.34 75.74 32.97 90.63 25.47 11.06 58.79 9.22 86.36 5.08 30.88 27.25 8.78 90.43-9.78 127.53-6.85 13.71 9.03 27.67 21.74 19.19 67.22-44.81 103.15-101.06 106.79-167.2 7.34-133.39-123.54-278.43-195.47-338.77z" fill="#ffdf8e"/>
   <path d="m455.95 342.3c-3.64 66.14-39.57 122.39-106.79 167.2-12.71 8.48-28.59-5.48-21.74-19.19 18.56-37.1 40.66-100.28 9.78-127.53-27.57 4.14-60.89 5.98-86.36-5.08v-357.7c3.31-0.02 6.71 1.07 9.64 3.53 71.93 60.34 202.81 205.38 195.47 338.77z" fill="#ffb64c"/>
  </g>
  <g transform="translate(3.7061 1.7018)">
   <path class="cls-3" d="m27.24 23.82a7 7 0 0 1-0.63 2.2 6.89 6.89 0 0 1-1.1 1.65 7 7 0 0 1-5.21 2.33h-8.6a7 7 0 0 1-5.21-2.33 6.89 6.89 0 0 1-1.1-1.67 7 7 0 0 1-0.63-2.2 6.5 6.5 0 0 1 0-1.59l0.66-6a6.23 6.23 0 0 1 0.3-1.36 7 7 0 0 1 2.2-3.25 6.11 6.11 0 0 1 0.93-0.6 6.81 6.81 0 0 1 3.52-1h7.26a7 7 0 0 1 6.66 4.87 6.23 6.23 0 0 1 0.3 1.36l0.66 6a6.5 6.5 0 0 1-0.01 1.59z"/>
   <path class="cls-4" d="m7.71 22.29 2.29 2.3 0.08-0.08a21.25 21.25 0 0 1-1.47-6.51l-1.61-1.59-1.81 1.82-0.44 4a6.5 6.5 0 0 0 0 1.59l1.53-1.53a1 1 0 0 1 1.43 0z"/>
   <path class="cls-4" d="m9.29 26.71-2.29-2.3-1.61 1.59a6.89 6.89 0 0 0 1.1 1.65 7 7 0 0 0 5.21 2.35h2.75a11.4 11.4 0 0 1-3.45-3.62l-0.33 0.33a1 1 0 0 1-1.38 0z"/>
   <path class="cls-4" d="m7.71 14.29 0.82 0.82a34 34 0 0 1 0.32-4.11 6.11 6.11 0 0 0-0.94 0.66 7 7 0 0 0-2.2 3.25l0.58-0.58a1 1 0 0 1 1.42-0.04z"/>
   <path class="cls-5" d="m8.61 18 0.68 0.68a1 1 0 0 0 1.42 0l2.29-2.27 2.29 2.3a1 1 0 0 0 1.42 0l2.29-2.3 2.29 2.3a1 1 0 0 0 1.42 0l2.29-2.3 1.81 1.82-0.22-2a6.23 6.23 0 0 0-0.3-1.36l-0.58-0.58a1 1 0 0 0-1.42 0l-2.29 2.3-2.29-2.3a1 1 0 0 0-1.42 0l-2.29 2.3-2.29-2.3a1 1 0 0 0-1.42 0l-2.29 2.3-1.47-1.48c-0.02 0.89 0 1.89 0.08 2.89z"/>
   <path class="cls-3" d="m8.61 18c-0.08-1-0.1-2-0.08-2.92l-0.82-0.82a1 1 0 0 0-1.42 0l-0.58 0.58a6.23 6.23 0 0 0-0.3 1.36l-0.22 2 1.81-1.79z"/>
   <path class="cls-5" d="m25.71 22.29a1 1 0 0 0-1.42 0l-2.29 2.3-2.29-2.3a1 1 0 0 0-1.42 0l-2.29 2.3-2.29-2.3a1 1 0 0 0-1.42 0l-2.21 2.22a13.76 13.76 0 0 0 1 1.87l2-2 2.29 2.3a1 1 0 0 0 1.42 0l2.21-2.27 2.29 2.3a1 1 0 0 0 1.42 0l2.29-2.3 1.61 1.59a7 7 0 0 0 0.63-2.2z"/>
   <path class="cls-4" d="m16 27a3.69 3.69 0 0 1-3.32-2.34l-0.09-0.21a1.07 1.07 0 0 1 0.41-1.34 0.83 0.83 0 0 1 1.18 0.44l0.09 0.21a1.85 1.85 0 0 0 3.5 0l0.09-0.21a0.83 0.83 0 0 1 1.14-0.44 1.07 1.07 0 0 1 0.39 1.34l-0.09 0.21a3.69 3.69 0 0 1-3.3 2.34z"/>
   <path class="cls-6" d="m16 26a4.22 4.22 0 0 1-3.79-2.34l-0.1-0.21a1 1 0 0 1 1.78-0.9l0.11 0.21a2.23 2.23 0 0 0 4 0l0.11-0.21a1 1 0 1 1 1.78 0.9l-0.1 0.21a4.22 4.22 0 0 1-3.79 2.34z"/>
   <path class="cls-3" d="m10 24.59-2.29-2.3a1 1 0 0 0-1.42 0l-1.53 1.53a7 7 0 0 0 0.63 2.18l1.61-1.59 2.29 2.3a1 1 0 0 0 1.42 0l0.33-0.33a13.76 13.76 0 0 1-1-1.87z"/>
   <circle class="cls-4" cx="21" cy="18" r="4"/>
   <circle class="cls-7" cx="21" cy="17" r="4"/>
   <circle class="cls-8" cx="21" cy="17" r="3"/>
   <circle class="cls-6" cx="21" cy="17" r="2"/>
   <circle class="cls-7" cx="22" cy="16" r="1"/>
   <circle class="cls-4" cx="11" cy="18" r="4"/>
   <circle class="cls-7" cx="11" cy="17" r="4"/>
   <circle class="cls-8" cx="11" cy="17" r="3"/>
   <circle class="cls-6" cx="11" cy="17" r="2"/>
   <circle class="cls-7" cx="12" cy="16" r="1"/>
  </g>
 </g>
</svg>
